<svg width="11" height="10" viewBox="0 0 11 10" fill="none" xmlns="http://www.w3.org/2000/svg">
<path d="M3.63588 3.42875L3.89192 3.3933L4.01104 3.1639L5.35355 0.578472C5.37697 0.53341 5.42517 0.49977 5.49921 0.500001C5.57434 0.500235 5.62381 0.535356 5.64669 0.578933C5.64674 0.579029 5.64679 0.579125 5.64684 0.57922L6.98897 3.1639L7.10808 3.3933L7.36412 3.42875L10.368 3.84472L10.3684 3.84476C10.4448 3.85529 10.4806 3.89763 10.4939 3.93658C10.5011 3.95743 10.5013 3.97656 10.4977 3.99204C10.4945 4.00545 10.4865 4.02516 10.4611 4.04863L10.4609 4.04877L8.28765 6.06024L8.08647 6.24644L8.13527 6.51619L8.64922 9.35728C8.6539 9.38322 8.64994 9.39995 8.6438 9.41335C8.63651 9.42928 8.62154 9.44921 8.59581 9.46679C8.54273 9.50306 8.47392 9.51102 8.4107 9.47945L8.41062 9.47941L5.72334 8.13778L5.5 8.02627L5.27666 8.13778L2.58938 9.4794L2.58784 9.48018C2.5253 9.51167 2.45741 9.50395 2.40455 9.46777C2.37885 9.45018 2.36374 9.4301 2.35631 9.41388C2.35004 9.40017 2.34612 9.38324 2.35076 9.35739C2.35076 9.35735 2.35077 9.35731 2.35078 9.35728L2.86473 6.51619L2.91353 6.24644L2.71235 6.06024L0.539079 4.04877L0.538934 4.04863C0.51355 4.02516 0.505496 4.00545 0.502325 3.99204C0.498665 3.97656 0.498931 3.95743 0.506054 3.93658C0.519362 3.89763 0.555242 3.85529 0.631609 3.84477L0.631956 3.84472L3.63588 3.42875Z" stroke="#FBB710"/>
</svg>
