<svg width="30" height="32" viewBox="0 0 30 32" fill="none" xmlns="http://www.w3.org/2000/svg">
<path d="M27.8571 0H2.13616C0.957589 0 0 1.03571 0 2.30714V29.6929C0 30.9643 0.957589 32 2.13616 32H27.8571C29.0357 32 30 30.9643 30 29.6929V2.30714C30 1.03571 29.0357 0 27.8571 0ZM9.06696 27.4286H4.62054V12.1571H9.07366V27.4286H9.06696ZM6.84375 10.0714C5.41741 10.0714 4.26562 8.83571 4.26562 7.32143C4.26562 5.80714 5.41741 4.57143 6.84375 4.57143C8.26339 4.57143 9.42187 5.80714 9.42187 7.32143C9.42187 8.84286 8.27009 10.0714 6.84375 10.0714ZM25.7344 27.4286H21.2879V20C21.2879 18.2286 21.2545 15.95 18.9777 15.95C16.6607 15.95 16.3058 17.8786 16.3058 19.8714V27.4286H11.8594V12.1571H16.125V14.2429H16.1853C16.7812 13.0429 18.2344 11.7786 20.3973 11.7786C24.8973 11.7786 25.7344 14.9429 25.7344 19.0571V27.4286Z" fill="white"/>
</svg>
